<?xml version="1.0" encoding="UTF-8" standalone="no"?><!DOCTYPE svg PUBLIC "-//W3C//DTD SVG 1.1//EN" "http://www.w3.org/Graphics/SVG/1.1/DTD/svg11.dtd"><svg width="100%" height="100%" viewBox="0 0 322 374" version="1.1" xmlns="http://www.w3.org/2000/svg" xmlns:xlink="http://www.w3.org/1999/xlink" xml:space="preserve" xmlns:serif="http://www.serif.com/" style="fill-rule:evenodd;clip-rule:evenodd;stroke-linejoin:round;stroke-miterlimit:2;"><g id="Layer1"><path d="M306.945,131.592c0,-38.323 -31.113,-69.437 -69.436,-69.437l-138.874,0c-38.323,0 -69.436,31.114 -69.436,69.437l0,138.873c0,38.323 31.113,69.437 69.436,69.437l138.874,0c38.323,0 69.436,-31.114 69.436,-69.437l0,-138.873Z" style="fill:#093766;"/></g><path d="M123.724,318.168c14.79,9.457 32.73,12.652 49.875,8.881c17.145,-3.771 32.09,-14.198 41.547,-28.987c9.457,-14.79 12.652,-32.73 8.881,-49.875c-3.77,-17.145 -14.198,-32.09 -28.987,-41.547l-71.316,111.528Zm-3.471,-2.22c-29.407,-18.804 -50.139,-48.519 -57.636,-82.609c-7.498,-34.09 -1.146,-69.761 17.658,-99.168c18.804,-29.406 48.519,-50.138 82.609,-57.636c34.09,-7.497 69.761,-1.145 99.168,17.659l-141.799,221.754Zm130.824,-215.208l-2.224,-1.421l-62.61,97.914l-25.013,-113.729l-2.577,0.566l25.247,114.798l-99.217,-63.444l-1.421,2.223l98.565,63.027l-113.729,25.012l0.567,2.578l113.729,-25.012l-63.027,98.565l2.223,1.422l129.487,-202.499Zm-73.051,150.914l14.684,-22.965c10.359,6.624 17.662,17.091 20.303,29.099c2.64,12.008 0.403,24.574 -6.221,34.932c-6.623,10.358 -17.09,17.661 -29.099,20.303c-12.008,2.64 -24.573,0.403 -34.932,-6.221l14.685,-22.965c2.691,0.503 5.481,0.469 8.206,-0.131c5.337,-1.173 9.989,-4.419 12.933,-9.023c2.944,-4.604 3.938,-10.188 2.764,-15.525c-0.599,-2.726 -1.739,-5.272 -3.323,-7.504Z" style="fill:#fff;fill-rule:nonzero;"/></svg>