<svg id="Layer_2" data-name="Layer 2" xmlns="http://www.w3.org/2000/svg" viewBox="0 0 403.79 361.88"><title>home</title><path d="M33.73,218.73l62.81-62.14,99.28-98.2,22.91-22.66H193.27L255.19,97.3l98.58,98.05,22.5,22.38c6.69,6.65,18.87,7.18,25.46,0s7.13-18.36,0-25.46L339.81,130.7l-98.58-98-22.5-22.38a18.3,18.3,0,0,0-25.46,0L130.46,72.41l-99.28,98.2L8.27,193.27c-6.7,6.63-7.14,18.91,0,25.46s18.3,7.07,25.46,0Z" transform="translate(-3.08 -5.12)"/><path d="M166,267h78V367h95.85A13.15,13.15,0,0,0,353,353.85V217L204,67,56,215V353a14,14,0,0,0,14,14h96" transform="translate(-3.08 -5.12)"/></svg>