<svg id="Layer_2" data-name="Layer 2" xmlns="http://www.w3.org/2000/svg" viewBox="0 0 375.11 360.51"><title>reset</title><path d="M73.54,132.28a166.38,166.38,0,0,1,9.8-19.58q2.49-4.24,5.24-8.33c.92-1.36,1.85-2.7,2.81-4,.54-.76,1.1-1.51,1.65-2.27,2.67-3.67-1.5,1.79.18-.24a187.66,187.66,0,0,1,14.55-16.07q3.53-3.41,7.25-6.59c1.42-1.21,2.87-2.39,4.32-3.57.28-.23,2.16-1.66.38-.32-2,1.55,1.14-.82,1.54-1.12a163.27,163.27,0,0,1,17.79-11.29q4.65-2.55,9.46-4.78c1.5-.7,3-1.37,4.53-2-4.07,1.76,2.08-.75,3-1.08a160.27,160.27,0,0,1,20.64-6.14c3.56-.8,7.14-1.41,10.73-2,.84-.15,3.53-.46-.43,0l2.2-.26c2.2-.26,4.42-.46,6.63-.63a166.18,166.18,0,0,1,21.75-.14c3.45.21,6.88.57,10.31.94,2.14.23-1.37-.13-1.39-.19a20.9,20.9,0,0,0,2.7.42q2.68.43,5.35,1a159.12,159.12,0,0,1,20.13,5.34c3.15,1.06,6.25,2.24,9.35,3.46s-3-1.39,1.17.53c1.8.83,3.6,1.65,5.38,2.53a165,165,0,0,1,17.08,9.79q3.83,2.52,7.51,5.24l2.09,1.57c-3.26-2.46-1.24-1-.56-.39,1.33,1.12,2.69,2.2,4,3.34a162,162,0,0,1,14.49,14.09c2.2,2.41,4.27,4.92,6.36,7.43s-1.89-2.63.79,1c1,1.4,2.06,2.81,3.06,4.24a162.48,162.48,0,0,1,10.56,17.35q2.15,4.1,4.06,8.29a18.13,18.13,0,0,1,1.07,2.42c-.13-.48-1.48-3.71-.27-.64.65,1.65,1.31,3.29,1.92,5a162.8,162.8,0,0,1,5.75,19.23c.76,3.3,1.42,6.63,2,10,.15.9.27,1.8.42,2.7.37,2.09-.22-1.34-.17-1.4-.41.47.61,5.5.67,6.16a164.09,164.09,0,0,1,.5,21.61c-.14,3.23-.37,6.46-.7,9.67-.09.91-.7,5.48-.33,3.07.39-2.6-.07.35-.17,1q-.27,1.69-.57,3.36a159.49,159.49,0,0,1-4.81,19.62c-1,3.18-2.09,6.33-3.27,9.44-.55,1.44-1.06,2.92-1.72,4.31,2.09-4.37-.7,1.44-1.13,2.35a160.84,160.84,0,0,1-9.45,17.3q-2.62,4.15-5.47,8.16c-.89,1.24-1.84,2.43-2.72,3.68-1.45,2,2.09-2.39.41-.55-.73.79-1.37,1.7-2.06,2.53a163.9,163.9,0,0,1-13.38,14.26q-3.56,3.36-7.31,6.51c-1.17,1-2.36,1.92-3.54,2.89,3.07-2.51-.33.24-1.56,1.13a162,162,0,0,1-17.13,10.9q-4.32,2.38-8.79,4.51c-1.39.66-2.83,1.24-4.2,1.92-1.83.9,1.18-.48,1.25-.51-1,.47-2.05.84-3.07,1.24a162,162,0,0,1-19.72,6.29c-3.06.77-6.14,1.44-9.24,2-1.79.33-3.58.62-5.37.91-2.67.45.09-.6.72-.07-.27-.22-2.33.28-2.73.33A164.19,164.19,0,0,1,204,330q-5.26-.12-10.51-.57c-2-.18-3.95-.41-5.92-.63-2.12-.24.94.11,1.11.14-1.21-.21-2.43-.37-3.64-.58A162.07,162.07,0,0,1,163.05,323q-4.8-1.54-9.5-3.37l-2.67-1.07c.58.23,3.4,1.51.35.13-1.73-.79-3.47-1.57-5.18-2.41a162.53,162.53,0,0,1-18.51-10.54c-3-1.95-5.81-4-8.66-6.14-2.09-1.55,2.28,1.9.3.21-.54-.46-1.1-.88-1.65-1.33-1.63-1.35-3.24-2.72-4.82-4.13a162.48,162.48,0,0,1-14.87-15.05c-1.23-1.43-2.44-2.87-3.62-4.34-.45-.54-.88-1.1-1.33-1.65,2.36,2.91.71.93.24.28-2.21-3.07-4.4-6.13-6.45-9.31a167.78,167.78,0,0,1-10.32-18.66c-4-8.52-16.93-11.41-24.62-6.45-8.77,5.65-10.8,15.5-6.46,24.62,29,61,92.09,101,159.43,102.22,62.65,1.15,122.26-31.6,155.72-84.39,34.19-53.94,36.17-124,6.58-180.3C337.9,45.91,280.35,9.79,218.22,5.83,151.62,1.59,86.61,36.73,52.61,93.92a167.13,167.13,0,0,0-10.15,20.19c-3.66,8.64-2.89,19.69,6.45,24.63,7.71,4.07,20.71,2.8,24.63-6.46Z" transform="translate(-12.63 -5.49)"/><path d="M99.79,107.14l-54.92,15L67,134.75,48.22,83C45,74.18,35.84,67.28,26.07,70.44c-8.67,2.81-16,12.67-12.57,22.14l18.8,51.74c3.32,9.15,12.12,15.31,22.14,12.57l54.92-15c9.08-2.48,15.56-12.9,12.57-22.14s-12.41-15.23-22.14-12.57Z" transform="translate(-12.63 -5.49)"/></svg>